<svg width="48" height="48" viewBox="0 0 48 48" fill="none" xmlns="http://www.w3.org/2000/svg">
<path d="M24 0C20.8483 0 17.7274 0.636191 14.8156 1.87225C11.9038 3.1083 9.25804 4.92002 7.02944 7.20396C2.52856 11.8166 0 18.0726 0 24.5958C0 35.4672 6.888 44.6907 16.416 47.9619C17.616 48.1587 18 47.3962 18 46.7321C18 46.1664 18 44.6169 18 42.5754C11.352 44.0512 9.936 39.2796 9.936 39.2796C8.832 36.4264 7.272 35.664 7.272 35.664C5.088 34.139 7.44 34.1882 7.44 34.1882C9.84 34.3604 11.112 36.7216 11.112 36.7216C13.2 40.4602 16.728 39.3534 18.096 38.7631C18.312 37.1643 18.936 36.0821 19.608 35.4672C14.28 34.8523 8.688 32.7371 8.688 23.3661C8.688 20.6359 9.6 18.4469 11.16 16.7006C10.92 16.0857 10.08 13.5277 11.4 10.2073C11.4 10.2073 13.416 9.54319 18 12.7161C19.896 12.1749 21.96 11.9044 24 11.9044C26.04 11.9044 28.104 12.1749 30 12.7161C34.584 9.54319 36.6 10.2073 36.6 10.2073C37.92 13.5277 37.08 16.0857 36.84 16.7006C38.4 18.4469 39.312 20.6359 39.312 23.3661C39.312 32.7617 33.696 34.8277 28.344 35.4426C29.208 36.2051 30 37.7054 30 39.9928C30 43.2887 30 45.945 30 46.7321C30 47.3962 30.384 48.1833 31.608 47.9619C41.136 44.6661 48 35.4672 48 24.5958C48 21.3659 47.3792 18.1675 46.1731 15.1834C44.967 12.1993 43.1992 9.48789 40.9706 7.20396C38.742 4.92002 36.0962 3.1083 33.1844 1.87225C30.2726 0.636191 27.1517 0 24 0Z" fill="black"/>
</svg>
