<svg width="49" height="110" viewBox="0 0 49 110" fill="none" xmlns="http://www.w3.org/2000/svg">
<circle cx="2.5" cy="2.5" r="2.5" fill="black"/>
<circle cx="17.5" cy="17.5" r="2.5" fill="black"/>
<ellipse cx="31.5" cy="32.5" rx="2.5" ry="2.5" transform="rotate(90 31.5 32.5)" fill="black"/>
<ellipse cx="46.5" cy="47.5" rx="2.5" ry="2.5" transform="rotate(90 46.5 47.5)" fill="black"/>
<ellipse cx="31.5" cy="2.5" rx="2.5" ry="2.5" transform="rotate(90 31.5 2.5)" fill="black"/>
<ellipse cx="46.5" cy="17.5" rx="2.5" ry="2.5" transform="rotate(90 46.5 17.5)" fill="black"/>
<ellipse cx="31.5" cy="62.5" rx="2.5" ry="2.5" transform="rotate(90 31.5 62.5)" fill="black"/>
<ellipse cx="46.5" cy="77.5" rx="2.5" ry="2.5" transform="rotate(90 46.5 77.5)" fill="black"/>
<ellipse cx="31.5" cy="92.5" rx="2.5" ry="2.5" transform="rotate(90 31.5 92.5)" fill="black"/>
<ellipse cx="46.5" cy="107.5" rx="2.5" ry="2.5" transform="rotate(90 46.5 107.5)" fill="black"/>
<circle cx="2.5" cy="32.5" r="2.5" fill="black"/>
<circle cx="17.5" cy="47.5" r="2.5" fill="black"/>
<circle cx="2.5" cy="62.5" r="2.5" fill="black"/>
<circle cx="17.5" cy="77.5" r="2.5" fill="black"/>
<circle cx="2.5" cy="92.5" r="2.5" fill="black"/>
<circle cx="17.5" cy="107.5" r="2.5" fill="black"/>
</svg>
