<svg width="63" height="41" viewBox="0 0 63 41" fill="none" xmlns="http://www.w3.org/2000/svg">
<path d="M1.33105 3.20924V5.63378V8.12746V10.6691V13.2377V15.8119V18.3707V20.8929V23.3575V25.7432V28.0289V30.1936V32.2159L1.40205 33.5314L1.6104 34.6995L1.94919 35.7265L2.41149 36.6188L2.99035 37.3825L3.67886 38.0239L4.47009 38.5495L5.3571 38.9654L6.33297 39.2779L7.39076 39.4933L8.52354 39.618L9.7244 39.6582H11.5607H13.5357H15.6255H17.8059H20.0527H22.3419H24.6493H26.9508H29.2223H31.4397H33.5789H35.6157L37.6694 39.4948L39.3784 39.0401L40.7742 38.347L41.8886 37.4686L42.7533 36.4579L43.3998 35.368L43.86 34.2518L44.1654 33.1624L44.3478 32.1529L44.4389 31.2762L44.4703 30.5854L44.4737 30.1335L46.8723 30.0235L49.1267 29.6986L51.2246 29.1666L53.1534 28.4353L54.9007 27.5125L56.4539 26.4058L57.8007 25.1232L58.9284 23.6723L59.8247 22.0609L60.4771 20.2968L60.873 18.3878L61 16.3416L60.8661 14.272L60.4941 12.2983L59.8937 10.4366L59.0744 8.70283L58.0461 7.11304L56.8182 5.68326L55.4005 4.42948L53.8026 3.36775L52.0341 2.51407L50.1048 1.88448L48.0242 1.49497L45.802 1.36157H41.8401H38.023H34.3284H30.7342H27.2181H23.7579H20.3314H16.9164H13.4907H10.032H6.51824H2.92712L2.70216 1.3726L2.48897 1.40635L2.28903 1.4638L2.10382 1.54593L1.93485 1.65373L1.78357 1.78816L1.6515 1.95022L1.5401 2.14089L1.45087 2.36114L1.3853 2.61196L1.34486 2.89434L1.33174 3.1935L1.33105 3.20924Z" stroke="black" stroke-width="2" stroke-linecap="round"/>
<path d="M44.3672 22.8815H44.6346H44.8437H45.0085H45.1432H45.2617H45.3784H45.5071H45.662H45.8572H46.1068H46.4248H46.8255L48.8881 22.603L50.5757 21.833L51.8883 20.6698L52.8258 19.2116L53.3883 17.5569L53.5759 15.8039L53.3883 14.0508L52.8258 12.3961L51.8883 10.938L50.5757 9.77474L48.8881 9.00471L46.8255 8.7262H46.4248H46.1068H45.8572H45.662H45.5071H45.3784H45.2617H45.1432H45.0085H44.8437H44.6346H44.3672V9.90581V11.0854V12.265V13.4446V14.6242V15.8039V16.9835V18.1631V19.3427V20.5223V21.7019V22.8225V22.8815Z" stroke="black" stroke-width="2" stroke-linecap="round"/>
<path d="M22.8131 13.3293L21.264 11.6663L19.5164 10.6359L17.6716 10.1833L15.8315 10.2536L14.0975 10.7923L12.5714 11.7445L11.3546 13.0554L10.5489 14.6704L10.2559 16.5347L10.5771 18.5934L11.6141 20.792L13.4687 23.0755L14.4236 24.0297L15.2723 24.8674L16.0345 25.6092L16.7298 26.2755L17.378 26.887L17.9986 27.4643L18.6114 28.0278L19.2361 28.5982L19.8923 29.1961L20.5997 29.8419L21.378 30.5563L22.2469 31.3597L22.3004 31.402L22.3495 31.4427L22.3951 31.4813L22.4381 31.5176L22.4792 31.5511L22.5193 31.5814L22.5592 31.6081L22.5997 31.6309L22.6417 31.6493L22.6861 31.6629L22.7336 31.6714L22.7851 31.6743L22.8363 31.6705L22.8858 31.6598L22.9338 31.643L22.9805 31.6209L23.0259 31.5945L23.0703 31.5645L23.1139 31.532L23.1566 31.4976L23.1988 31.4624L23.2406 31.427L23.282 31.3925L23.3233 31.3597L24.1885 30.5568L24.9565 29.8439L25.6482 29.2001L26.2843 28.6047L26.8857 28.0366L27.4732 27.4751L28.0676 26.8993L28.6898 26.2883L29.3604 25.6213L30.1005 24.8774L30.9307 24.0358L31.8719 23.0755L33.7874 20.7003L34.8761 18.4419L35.2405 16.3506L34.9828 14.4764L34.2054 12.8698L33.0108 11.5808L31.5012 10.6597L29.7792 10.1567L27.9469 10.1219L26.1069 10.6056L24.3615 11.658L22.8905 13.2457L22.8131 13.3293Z" fill="black"/>
</svg>
