<svg xmlns="http://www.w3.org/2000/svg" width="100%" height="100%" viewBox="0 0 24 24" fill="#171717">
    <path
        d="M17.3515 0L11.8854 2.1609L6.41929 0L0 2.53822V21.4628L6.41929 24.001L11.8854 21.8401L17.3515 24.001L23.7708 21.4628V2.53822L17.3515 0ZM17.3515 1.03184L22.8176 3.19274V11.0018L17.3515 8.84192V1.03184ZM17.3515 9.87471L22.7307 12.001L17.3515 14.1272L11.9723 12.001L17.3515 9.87471ZM6.41929 1.03184L11.8854 3.19274V11.0018L6.41929 8.84192V1.03184ZM6.41929 9.87471L11.7975 12.001L6.41835 14.1272L1.04011 12.001L6.41929 9.87471ZM0.953201 20.8073V12.9982L6.41929 15.1581V22.9682L0.953201 20.8073ZM11.8854 20.8073V12.9982L17.3515 15.1581V22.9682L11.8854 20.8073Z">
    </path>
</svg>