<svg width="48" height="48" viewBox="0 0 48 48" fill="none" xmlns="http://www.w3.org/2000/svg">
<path d="M6.72494 34.5501C8.5085 34.5501 10.219 35.2586 11.4802 36.5198C12.7414 37.781 13.4499 39.4915 13.4499 41.2751C13.4499 44.9152 10.4267 48 6.72494 48C3.08483 48 0 44.9152 0 41.2751C0 39.4915 0.708518 37.781 1.96969 36.5198C3.23086 35.2586 4.94137 34.5501 6.72494 34.5501M0 0C12.7304 0 24.9394 5.05713 33.9411 14.0589C42.9429 23.0606 48 35.2696 48 48H39.2699C39.2699 42.843 38.2542 37.7365 36.2807 32.9721C34.3072 28.2076 31.4146 23.8785 27.768 20.232C24.1215 16.5854 19.7924 13.6928 15.0279 11.7193C10.2635 9.74582 5.157 8.73008 0 8.73008V0ZM0 17.4602C8.09967 17.4602 15.8676 20.6777 21.5949 26.4051C27.3223 32.1324 30.5398 39.9003 30.5398 48H21.8098C21.8098 42.2157 19.512 36.6683 15.4218 32.5782C11.3317 28.488 5.78431 26.1902 0 26.1902V17.4602Z" fill="black"/>
</svg>
